<svg width="28" height="29" viewBox="0 0 28 29" fill="none" xmlns="http://www.w3.org/2000/svg">
<path fill-rule="evenodd" clip-rule="evenodd" d="M14 25.9545C20.3262 25.9545 25.4545 20.8262 25.4545 14.5C25.4545 8.17383 20.3262 3.04545 14 3.04545C7.67383 3.04545 2.54545 8.17383 2.54545 14.5C2.54545 20.8262 7.67383 25.9545 14 25.9545ZM14 28.5C21.732 28.5 28 22.232 28 14.5C28 6.76801 21.732 0.5 14 0.5C6.26801 0.5 0 6.76801 0 14.5C0 22.232 6.26801 28.5 14 28.5Z" fill="#FFFFFF"/>
<path d="M19.0909 14.5L11.4545 20.0111V8.98893L19.0909 14.5Z" fill="#FFFFFF"/>
</svg>
