<svg width="24" height="26" viewBox="0 0 24 26" fill="none" xmlns="http://www.w3.org/2000/svg">
<path d="M5.53299 20.5H18.3108V18H5.53299V20.5Z" fill="#FFFFFF"/>
<path d="M18.3108 15.5H5.53299V13H18.3108V15.5Z" fill="#FFFFFF"/>
<path d="M5.53299 10.5H10.6441V8H5.53299V10.5Z" fill="#FFFFFF"/>
<path fill-rule="evenodd" clip-rule="evenodd" d="M4.25521 0.5C2.13812 0.5 0.421875 2.17893 0.421875 4.25V21.75C0.421875 23.8211 2.13812 25.5 4.25521 25.5H19.5885C21.7056 25.5 23.4219 23.8211 23.4219 21.75V9.25C23.4219 4.41751 19.4173 0.5 14.4774 0.5H4.25521ZM4.25521 3H13.1997V9.25H20.8663V21.75C20.8663 22.4404 20.2942 23 19.5885 23H4.25521C3.54951 23 2.97743 22.4404 2.97743 21.75V4.25C2.97743 3.55964 3.54951 3 4.25521 3ZM15.7552 3.12502C17.8141 3.53388 19.5135 4.91132 20.3347 6.75H15.7552V3.12502Z" fill="#FFFFFF"/>
</svg>
