<svg width="38" height="41" viewBox="0 0 38 41" fill="none" xmlns="http://www.w3.org/2000/svg">
<path fill-rule="evenodd" clip-rule="evenodd" d="M20.6529 0C21.2006 0 21.7259 0.213841 22.1133 0.594479L32.4397 10.7429C32.827 11.1235 33.0446 11.6398 33.0446 12.1781V14.2078C33.0446 15.3287 32.1199 16.2374 30.9793 16.2374H18.5876C17.5284 16.2374 16.6555 15.4539 16.5362 14.4445L16.5223 14.2078L16.5202 4.05936H6.19586C5.05524 4.05936 4.13057 4.96808 4.13057 6.08904V34.5045C4.13057 35.6255 5.05524 36.5342 6.19586 36.5342H10.3264C11.4671 36.5342 12.3917 37.4429 12.3917 38.5639C12.3917 39.6849 11.4671 40.5936 10.3264 40.5936H6.19586C2.77398 40.5936 0 37.8674 0 34.5045V6.08904C0 2.72615 2.77398 0 6.19586 0H20.6529ZM26.8499 20.2969C27.9905 20.2969 28.9152 21.2056 28.9152 22.3266V28.4156H35.111C36.2517 28.4156 37.1763 29.3243 37.1763 30.4453C37.1763 31.5662 36.2517 32.4749 35.111 32.4749H28.9152V38.564C28.9152 39.6849 27.9905 40.5937 26.8499 40.5937C25.7092 40.5937 24.7846 39.6849 24.7846 38.564V32.4749H18.5887C17.4481 32.4749 16.5234 31.5662 16.5234 30.4453C16.5234 29.3243 17.4481 28.4156 18.5887 28.4156H24.7846V22.3266C24.7846 21.2056 25.7092 20.2969 26.8499 20.2969ZM20.6484 4.89844L20.6505 12.1769H28.0566L20.6484 4.89844Z" fill="white"/>
</svg>
